<?xml version="1.0" encoding="utf-8"?>
<!-- Generator: Adobe Illustrator 16.0.3, SVG Export Plug-In . SVG Version: 6.00 Build 0)  -->
<!DOCTYPE svg PUBLIC "-//W3C//DTD SVG 1.1//EN" "http://www.w3.org/Graphics/SVG/1.1/DTD/svg11.dtd">
<svg version="1.1" id="Thief" xmlns="http://www.w3.org/2000/svg" xmlns:xlink="http://www.w3.org/1999/xlink" x="0px" y="0px"
	 width="130px" height="130px" viewBox="-57.625 -84.791 130 130" enable-background="new -57.625 -84.791 130 130"
	 xml:space="preserve">
<g id="Head">
	<g>
		<g>
			<path d="M8.307,2.262c-15.642,0-28.368-14.731-28.368-32.837c0-18.107,12.724-32.837,28.368-32.837
				c15.643,0,28.367,14.73,28.367,32.837C36.674-12.469,23.949,2.262,8.307,2.262z M-15.683-30.575
				c0,15.692,10.762,28.459,23.989,28.459c13.227,0,23.988-12.768,23.988-28.459C32.295-38.561-15.683-38.561-15.683-30.575z"/>
		</g>
		<g>
			<path d="M60.716,41.667h-105V26.843c0-6.459,4.088-12.261,10.169-14.431L-7.11,4.974v-9.097h4.378V8.308l-30.068,8.276
				c-4.188,1.504-7.108,5.646-7.108,10.259v10.446h96.246V26.843c0-4.611-2.921-8.755-7.267-10.309L19.161,8.308V-4.031h4.378v9.005
				l26.852,7.389c6.238,2.222,10.325,8.021,10.325,14.48V41.667z"/>
		</g>
	</g>
</g>
<g id="Eyes">
	<g id="blindfold">
		<rect x="-15.868" y="-43.928" width="48.894" height="11.711"/>
	</g>
	<path fill="#F8F8F8" d="M1.772-38.511c0,1.069-0.866,1.935-1.934,1.935h-3.131c-1.068,0-1.935-0.866-1.935-1.935l0,0
		c0-1.068,0.866-1.934,1.935-1.934h3.131C0.907-40.445,1.772-39.58,1.772-38.511L1.772-38.511z"/>
	<path fill="#F8F8F8" d="M21.84-38.511c0,1.069-0.868,1.935-1.935,1.935h-3.131c-1.071,0-1.934-0.866-1.934-1.935l0,0
		c0-1.069,0.863-1.935,1.934-1.935h3.131C20.972-40.446,21.84-39.58,21.84-38.511L21.84-38.511z"/>
</g>
<g id="Mouth">
	<ellipse fill="none" stroke="#000000" stroke-width="3" stroke-miterlimit="10" cx="8.58" cy="-13.746" rx="4.013" ry="4.789"/>
</g>
<g id="Hat">
	<path d="M-10.647-61.223c-12.3-0.769-13.581,4.361-13.581,4.361s-2.306,6.148,32.799,5.892c0,0,32.8,0.256,32.8-5.158
		c0.94-4.153-13.066-5.169-13.066-5.169l-7.175-15.897c0,0-4.27-5.125-9.74,0c0,0-3.075,3.93-5.295,0c0,0-4.44-5.128-10.077,0.17
		L-10.647-61.223z"/>
</g>
</svg>
