<?xml version="1.0" encoding="utf-8"?>
<!-- Generator: Adobe Illustrator 16.0.3, SVG Export Plug-In . SVG Version: 6.00 Build 0)  -->
<!DOCTYPE svg PUBLIC "-//W3C//DTD SVG 1.1//EN" "http://www.w3.org/Graphics/SVG/1.1/DTD/svg11.dtd">
<svg version="1.1" id="Report_2" xmlns="http://www.w3.org/2000/svg" xmlns:xlink="http://www.w3.org/1999/xlink" x="0px" y="0px"
	 width="110px" height="110px" viewBox="432.972 -135.805 110 110" enable-background="new 432.972 -135.805 110 110"
	 xml:space="preserve">
<path fill="none" stroke="#000000" stroke-width="3" stroke-miterlimit="10" d="M509.031-57.082c0,2.85-2.408,5.209-5.27,5.209
	c-0.945,0-1.75,0-4.967-2.635c-3.24-2.574-8.789-7.848-14.46-10.482c-5.27-2.436-10.723-2.635-16.092-2.635l6.418,17.479
	l0.119,0.896c0,1.463-1.172,2.635-2.635,2.635h-10.539c-1.107,0-2.152-0.697-2.455-1.762l-7.039-19.248h-0.984
	c-2.922,0-5.27-2.348-5.27-5.27c-5.84,0-10.539-4.695-10.539-10.54c0-5.797,4.699-10.524,10.539-10.524
	c0-2.891,2.348-5.24,5.27-5.24h15.748c5.852,0,11.707,0,17.459-2.634c5.671-2.639,11.22-7.916,14.46-10.523
	c3.217-2.639,4.021-2.639,4.967-2.639c2.861,0,5.27,2.354,5.27,5.246V-57.082z"/>
<g id="Sound">
	
		<rect x="516.076" y="-99.347" transform="matrix(-0.7071 0.7071 -0.7071 -0.7071 828.184 -540.6809)" fill="none" stroke="#000000" stroke-width="2" stroke-linecap="round" stroke-linejoin="round" stroke-miterlimit="10" width="20.001" height="1.075"/>
	
		<rect x="520.627" y="-87.358" fill="none" stroke="#000000" stroke-width="2" stroke-linecap="round" stroke-linejoin="round" stroke-miterlimit="10" width="19.998" height="1.072"/>
	
		<rect x="516.077" y="-75.374" transform="matrix(-0.7071 -0.7071 0.7071 -0.7071 950.9949 244.2229)" fill="none" stroke="#000000" stroke-width="2" stroke-linecap="round" stroke-linejoin="round" stroke-miterlimit="10" width="19.997" height="1.074"/>
</g>
</svg>
