<?xml version="1.0" encoding="utf-8"?>
<!-- Generator: Adobe Illustrator 16.0.3, SVG Export Plug-In . SVG Version: 6.00 Build 0)  -->
<!DOCTYPE svg PUBLIC "-//W3C//DTD SVG 1.1//EN" "http://www.w3.org/Graphics/SVG/1.1/DTD/svg11.dtd">
<svg version="1.1" xmlns="http://www.w3.org/2000/svg" xmlns:xlink="http://www.w3.org/1999/xlink" x="0px" y="0px"
	 width="107.25px" height="115.781px" viewBox="0 0 107.25 115.781" enable-background="new 0 0 107.25 115.781"
	 xml:space="preserve">
<g id="Foto" display="none">
	
		<image display="inline" overflow="visible" width="820" height="707" xlink:href="8916D9.jpg"  transform="matrix(1 0 0 1 -65.5 -104)">
	</image>
</g>
<g id="Archive">
	<polygon fill="none" stroke="#000000" stroke-width="2" stroke-linejoin="round" stroke-miterlimit="10" points="1.114,114.667 
		19.765,66.312 56.377,66.312 61.644,56.64 106.114,56.64 84.354,114.667 	"/>
	<polygon fill="none" stroke="#000000" stroke-width="2" stroke-miterlimit="10" points="3.041,109.67 3.041,48.581 28.055,48.581 
		28.055,66.312 19.765,66.312 	"/>
	<polygon fill="none" stroke="#000000" stroke-width="2" stroke-miterlimit="10" points="28.055,66.312 28.055,1.032 69.847,1.032 
		86.426,17.611 86.426,56.64 61.644,56.64 56.377,66.312 	"/>
	<polygon fill="none" stroke="#000000" stroke-width="2" stroke-linejoin="round" stroke-miterlimit="10" points="70.279,17.87 
		86.426,17.87 70.279,1.463 	"/>
	<rect x="37.726" y="13.293" width="12.952" height="4.577"/>
	<polyline points="37.726,28.145 37.726,23.655 69.329,23.655 69.329,28.145 	"/>
	<rect x="37.726" y="31.081" width="31.604" height="4.317"/>
	<polygon points="37.726,58.54 37.726,42.824 77.101,42.824 77.101,47.487 63.63,54.223 54.132,48.581 45.842,57.417 41.525,55.086 
			"/>
	<polyline points="70.193,55.949 77.101,51.718 77.101,55.949 	"/>
	<polygon points="60.956,57.905 54.909,53.834 46.533,62.771 42.216,60.008 37.726,64.066 37.726,66.312 56.377,66.312 	"/>
</g>
<g id="Discussion">
	<path fill="#FFFFFF" stroke="#000000" stroke-width="2" stroke-miterlimit="10" d="M230.497,58.825c0,9.298,3.76,17.723,9.85,23.85
		c2.119,5.061-29.691,13.678,8.433,6.208c4.72,2.46,10.09,3.853,15.788,3.853c18.817,0,34.07-15.183,34.07-33.911
		c0-18.729-15.253-33.911-34.07-33.911S230.497,40.096,230.497,58.825z"/>
	<path fill="#FFFFFF" stroke="#000000" stroke-width="2" stroke-miterlimit="10" d="M334.332,80.755
		c0,9.299-3.76,17.724-9.849,23.85c-2.12,5.061,29.691,13.678-8.434,6.208c-4.719,2.46-10.09,3.853-15.788,3.853
		c-18.817,0-34.07-15.183-34.07-33.911c0-18.728,15.253-33.911,34.07-33.911S334.332,62.027,334.332,80.755z"/>
</g>
<g id="Investigation">
	<g id="Conexiones">
		<line fill="none" stroke="#000000" stroke-miterlimit="10" x1="463.968" y1="19.417" x2="463.968" y2="9.84"/>
		<line fill="none" stroke="#000000" stroke-miterlimit="10" x1="463.968" y1="3.907" x2="463.968" y2="-7.321"/>
		<line fill="none" stroke="#000000" stroke-miterlimit="10" x1="450.773" y1="-19.864" x2="450.773" y2="-28.113"/>
		<line fill="none" stroke="#000000" stroke-miterlimit="10" x1="450.773" y1="-36.401" x2="450.773" y2="-42.985"/>
		<line fill="none" stroke="#000000" stroke-miterlimit="10" x1="463.968" y1="-12.278" x2="463.968" y2="-23.846"/>
		<line fill="none" stroke="#000000" stroke-miterlimit="10" x1="463.968" y1="-18.062" x2="453.428" y2="-18.062"/>
		<line fill="none" stroke="#000000" stroke-miterlimit="10" x1="479.352" y1="29.357" x2="479.352" y2="19.417"/>
		<line fill="none" stroke="#000000" stroke-miterlimit="10" x1="479.352" y1="14.622" x2="479.352" y2="3.907"/>
		<line fill="none" stroke="#000000" stroke-miterlimit="10" x1="463.968" y1="-30.104" x2="463.968" y2="-41.333"/>
		<line fill="none" stroke="#000000" stroke-miterlimit="10" x1="463.968" y1="-46.966" x2="463.968" y2="-54.552"/>
		<line fill="none" stroke="#000000" stroke-miterlimit="10" x1="479.352" y1="-35.738" x2="479.352" y2="-42.985"/>
		<line fill="none" stroke="#000000" stroke-miterlimit="10" x1="494.088" y1="24.387" x2="494.088" y2="14.622"/>
		<line fill="none" stroke="#000000" stroke-miterlimit="10" x1="479.352" y1="-3.379" x2="479.352" y2="-12.278"/>
		<line fill="none" stroke="#000000" stroke-miterlimit="10" x1="479.352" y1="-18.062" x2="479.352" y2="-28.113"/>
		<line fill="none" stroke="#000000" stroke-miterlimit="10" x1="494.088" y1="-23.995" x2="494.088" y2="-36.401"/>
		<line fill="none" stroke="#000000" stroke-miterlimit="10" x1="494.088" y1="-41.333" x2="494.088" y2="-50.759"/>
		<line fill="none" stroke="#000000" stroke-miterlimit="10" x1="494.088" y1="9.285" x2="494.088" y2="-3.379"/>
		<line fill="none" stroke="#000000" stroke-miterlimit="10" x1="494.088" y1="-7.835" x2="494.088" y2="-18.062"/>
		<line fill="none" stroke="#000000" stroke-miterlimit="10" x1="499.019" y1="-18.062" x2="510.209" y2="-18.062"/>
		<line fill="none" stroke="#000000" stroke-miterlimit="10" x1="494.088" y1="-58.858" x2="494.088" y2="-68.435"/>
		<line fill="none" stroke="#000000" stroke-miterlimit="10" x1="510.209" y1="-38.867" x2="510.209" y2="-49.282"/>
		<line fill="none" stroke="#000000" stroke-miterlimit="10" x1="510.209" y1="-21.529" x2="510.209" y2="-32.758"/>
	</g>
	<g id="Fuentes">
		<path fill="#C16A48" stroke="#000000" stroke-width="0.5" stroke-miterlimit="10" d="M467.949-61.135
			c0,2.154-1.748,3.929-3.981,3.929c-2.155,0-3.903-1.775-3.903-3.929c0-2.195,1.748-3.982,3.903-3.982
			C466.201-65.117,467.949-63.33,467.949-61.135z"/>
		<path fill="#AD4D4D" stroke="#000000" stroke-width="0.5" stroke-miterlimit="10" d="M483.334-49.282
			c0,2.194-1.826,3.968-3.982,3.968c-2.233,0-3.98-1.774-3.98-3.968c0-2.155,1.747-3.942,3.98-3.942
			C481.508-53.225,483.334-51.437,483.334-49.282z"/>
		<path fill="#6BC16B" stroke="#000000" stroke-width="0.5" stroke-miterlimit="10" d="M454.755-46.966
			c0,2.194-1.827,3.981-3.981,3.981c-2.155,0-3.955-1.788-3.955-3.981c0-2.194,1.8-3.942,3.955-3.942
			C452.928-50.909,454.755-49.161,454.755-46.966z"/>
		<path fill="#36B2D8" stroke="#000000" stroke-width="0.5" stroke-miterlimit="10" d="M514.19-53.225
			c0,2.194-1.749,3.942-3.981,3.942c-2.156,0-3.903-1.748-3.903-3.942c0-2.194,1.747-3.981,3.903-3.981
			C512.441-57.206,514.19-55.418,514.19-53.225z"/>
		<path fill="#E1E553" stroke="#000000" stroke-width="0.5" stroke-miterlimit="10" d="M497.992-72.364
			c0,2.155-1.75,3.929-3.904,3.929c-2.233,0-3.981-1.774-3.981-3.929c0-2.194,1.748-3.982,3.981-3.982
			C496.242-76.346,497.992-74.558,497.992-72.364z"/>
	</g>
	<g id="Compu">
		
			<line fill="#FFFFFF" stroke="#000000" stroke-width="2" stroke-miterlimit="10" x1="469.509" y1="114.333" x2="469.508" y2="131.496"/>
		<polyline fill="#FFFFFF" stroke="#000000" stroke-width="2" stroke-miterlimit="10" points="460.246,131.496 469.508,131.496 
			498.603,131.496 		"/>
		
			<rect x="433.788" y="37.932" fill="none" stroke="#000000" stroke-width="2" stroke-miterlimit="10" width="92.755" height="62.402"/>
		
			<rect x="427.666" y="29.357" fill="none" stroke="#000000" stroke-width="2" stroke-linejoin="round" stroke-miterlimit="10" width="105" height="84.976"/>
		
			<line fill="#FFFFFF" stroke="#000000" stroke-width="2" stroke-miterlimit="10" x1="489.313" y1="114.333" x2="489.313" y2="131.496"/>
		<g id="Question_mark">
			<path d="M482.701,84.635c0,2.922-2.401,5.271-5.309,5.271c-2.936,0-5.23-2.349-5.23-5.271c0-2.921,2.295-5.295,5.23-5.295
				C480.3,79.34,482.701,81.714,482.701,84.635z"/>
			<path d="M475.127,75.015c0,0,1.687,2.478,3.843,0c0,0-0.04-3.915,2.536-5.647c0,0,6.529-2.522,8.332-4.776
				c0,0,6.124-6.526,0-12.764c0,0-2.217-3.189-10.191-3.451c0,0-6.653-0.415-11.055,3.597c0,0-4.099,3.839-1.733,9.542
				c0,0,1.102,2.602,4.507,2.602c0,0,3.989,0.066,4.511-3.645c0,0,0.591-2.669-2.267-2.66c0,0-2.253-0.14-2.351,1.842
				c0,0-1.054-0.394-0.542-3.176c0,0,1.064-3.336,5.978-4.312c0,0,4.271-1.008,7.44,0.521c0,0,7.483,5.125,0.672,9.91
				c0,0-6.654,4.36-8.47,5.752c0,0-1.27,1.684-1.229,3.203L475.127,75.015z"/>
		</g>
	</g>
</g>
<g id="Evaluation" display="none">
	<g id="Paper_3" display="inline">
		<polygon fill="#FFFFFF" stroke="#000000" stroke-width="2" stroke-miterlimit="10" points="79.438,228.355 117.666,123.325 
			173.577,143.675 187.786,176.271 158.372,257.084 		"/>
		<polygon fill="none" stroke="#000000" stroke-width="2" stroke-linejoin="bevel" stroke-miterlimit="10" points="164.763,167.891 
			173.577,143.675 187.786,176.271 		"/>
		<rect x="131.705" y="150.262" transform="matrix(-0.342 0.9397 -0.9397 -0.342 343.636 105.6423)" width="6.25" height="45.75"/>
		<polyline points="115.856,158.383 118.08,152.275 161.071,167.923 158.848,174.031 		"/>
		<rect x="127.574" y="135.124" transform="matrix(-0.342 0.9397 -0.9397 -0.342 311.4393 70.9315)" width="6.625" height="18.75"/>
		<rect x="128.028" y="160.364" transform="matrix(-0.342 0.9397 -0.9397 -0.342 348.1971 122.663)" width="6.25" height="45.75"/>
		<rect x="124.138" y="171.052" transform="matrix(-0.342 0.9397 -0.9397 -0.342 353.022 140.6695)" width="6.25" height="45.75"/>
		
			<rect x="120.118" y="182.094" transform="matrix(-0.3421 0.9397 -0.9397 -0.3421 358.0052 159.2696)" width="6.251" height="45.75"/>
	</g>
	<g id="Paper_2" display="inline">
		<polygon fill="#FFFFFF" stroke="#000000" stroke-width="2" stroke-miterlimit="10" points="43.705,238.796 43.705,127.026 
			103.205,127.026 127.705,152.795 127.705,238.796 		"/>
		<polygon fill="none" stroke="#000000" stroke-width="2" stroke-linejoin="bevel" stroke-miterlimit="10" points="103.205,152.795 
			103.205,127.026 127.705,152.795 		"/>
		<rect x="53.996" y="164.838" width="45.75" height="6.25"/>
		<polyline points="53.996,160.588 53.996,154.088 99.746,154.088 99.746,160.588 		"/>
		<rect x="53.996" y="139.088" width="18.75" height="6.625"/>
		<rect x="53.996" y="175.588" width="45.75" height="6.25"/>
		<rect x="53.996" y="186.963" width="45.75" height="6.25"/>
		<rect x="53.996" y="198.713" width="45.75" height="6.25"/>
		<rect x="53.996" y="210.047" width="45.75" height="6.251"/>
	</g>
	<g id="Paper_1" display="inline">
		<polygon fill="#FFFFFF" stroke="#000000" stroke-width="2" stroke-miterlimit="10" points="5.415,254.217 -32.813,149.189 
			23.099,128.838 54.935,144.674 84.349,225.488 		"/>
		<polygon fill="none" stroke="#000000" stroke-width="2" stroke-linejoin="bevel" stroke-miterlimit="10" points="31.913,153.054 
			23.099,128.838 54.935,144.674 		"/>
		<polygon points="3.386,218.554 -4.396,197.176 49.167,177.681 51.476,184.024 36.486,199.855 20.773,196.884 13.871,213.008 
			6.844,211.974 		"/>
		<rect x="9.23" y="153.439" transform="matrix(0.342 0.9397 -0.9397 0.342 173.8143 104.4115)" width="6.25" height="45.75"/>
		<polyline points="-11.663,177.208 -13.886,171.1 29.104,155.452 31.328,161.56 		"/>
		<rect x="-12.387" y="147.535" transform="matrix(0.342 0.9397 -0.9397 0.342 141.4766 111.7705)" width="6.626" height="18.75"/>
		<polygon points="61.75,212.253 53.969,190.875 39.536,208.233 24.69,204.724 18.736,221.258 10.64,218.75 6.307,226.58 
			8.188,231.749 		"/>
	</g>
	<g id="Search" display="inline">
		
			<line fill="none" stroke="#000000" stroke-width="5" stroke-linecap="round" stroke-miterlimit="10" x1="114.903" y1="209.431" x2="136.25" y2="230.725"/>
		<path opacity="0.4" fill="#848181" d="M122.941,189.867c0,15.415-12.48,27.9-27.928,27.9c-15.415,0-27.895-12.485-27.895-27.9
			c0-15.414,12.48-27.928,27.895-27.928C110.461,161.938,122.941,174.453,122.941,189.867z"/>
		<path fill="none" stroke="#000000" stroke-width="5" stroke-miterlimit="10" d="M122.079,188.893
			c0,15.415-12.485,27.901-27.929,27.901c-15.414,0-27.9-12.486-27.9-27.901c0-15.414,12.486-27.928,27.9-27.928
			C109.594,160.965,122.079,173.479,122.079,188.893z"/>
	</g>
</g>
</svg>
