<?xml version="1.0" encoding="utf-8"?>
<!-- Generator: Adobe Illustrator 16.0.3, SVG Export Plug-In . SVG Version: 6.00 Build 0)  -->
<!DOCTYPE svg PUBLIC "-//W3C//DTD SVG 1.1//EN" "http://www.w3.org/Graphics/SVG/1.1/DTD/svg11.dtd">
<svg version="1.1" id="Logo" xmlns="http://www.w3.org/2000/svg" xmlns:xlink="http://www.w3.org/1999/xlink" x="0px" y="0px"
	 width="299.827px" height="27.001px" viewBox="0 0 299.827 27.001" enable-background="new 0 0 299.827 27.001"
	 xml:space="preserve">
<g id="Logotipo">
	<path d="M-0.173,2.92c0-0.245,0.035-0.33,0.173-0.532c0.139-0.063,0.293-0.096,0.532-0.096H16.2c0.161,0,0.312,0.029,0.453,0.088
		c0.141,0.06,0.184,0.284,0.194,0.54v3.789c0,0.096-0.034,0.326-0.166,0.414c-0.133,0.227-0.293,0.27-0.482,0.27h-5.069v16.663
		c0,0.235-0.036,0.322-0.17,0.538c-0.135,0.077-0.292,0.116-0.469,0.116H6.23c-0.22,0-0.371-0.036-0.517-0.107
		c-0.146-0.212-0.187-0.301-0.187-0.547V7.393H0.532C0.293,7.393,0.139,7.358,0,7.289c-0.138-0.208-0.173-0.309-0.173-0.58V2.92z"/>
	<path d="M20.318,2.938c0-0.251,0.03-0.34,0.154-0.546c0.125-0.066,0.279-0.1,0.463-0.1h9.39c1.011,0,1.988,0.103,2.864,0.585
		c0.875,0.345,1.624,0.9,2.245,1.529c0.688,0.63,1.166,1.458,1.57,2.346c0.337,0.888,0.508,1.807,0.508,2.895
		c0,0.64-0.052,1.263-0.216,1.868c-0.231,0.744-0.434,1.328-0.796,1.751c-0.32,0.563-0.662,1.099-1.102,1.47
		c-0.441,0.51-0.97,0.847-1.456,1.15l3.706,7.339c0.103,0.214,0.151,0.302,0.275,0.541c0.125,0.24,0.155,0.328,0.155,0.542
		c0,0.085-0.029,0.289-0.15,0.334c-0.058,0.046-0.197,0.068-0.425,0.068h-4.987c-0.157,0-0.304-0.026-0.442-0.08
		c-0.138-0.053-0.186-0.264-0.26-0.49l-3.539-6.849h-2.352v6.798c0,0.507-0.189,0.621-0.633,0.621h-4.354
		c-0.174,0-0.325-0.028-0.455-0.084c-0.129-0.057-0.162-0.281-0.162-0.537V2.938z M31.729,9.679c0-0.299-0.095-0.598-0.156-0.896
		c-0.123-0.299-0.271-0.584-0.509-0.855c-0.173-0.272-0.369-0.523-0.648-0.613c-0.282-0.229-0.579-0.288-0.944-0.315
		c-0.229-0.011-0.501-0.02-0.763-0.029c-0.197-0.146-0.472-0.149-0.759-0.149h-2.026v5.571h2.725c0.162,0,0.313-0.003,0.454-0.009
		c0.141-0.005,0.29-0.013,0.446-0.023c0.319-0.021,0.62-0.076,0.9-0.303c0.281-0.088,0.474-0.336,0.706-0.605
		c0.167-0.27,0.31-0.555,0.43-0.856C31.637,10.293,31.729,9.988,31.729,9.679z"/>
	<path d="M46.837,2.881c0.005-0.171,0.022-0.205,0.118-0.242c0.029-0.037,0.065-0.211,0.173-0.243
		c0.043-0.032,0.154-0.057,0.269-0.076c0.047-0.018,0.16-0.027,0.202-0.027h3.764c0.156,0,0.299,0.027,0.43,0.084
		c0.064,0.057,0.177,0.244,0.21,0.286L52.4,3.534l7.63,20.538c0.11,0.246,0.036,0.332-0.023,0.538c-0.125,0.066-0.292,0.1-0.569,0.1
		H55.23c-0.189,0-0.349-0.022-0.482-0.068c-0.133-0.045-0.25-0.26-0.288-0.502c-0.172-0.414-0.408-0.962-0.577-1.509
		c-0.167-0.407-0.333-0.955-0.566-1.505h-7.693c-0.219,0.55-0.389,1.098-0.558,1.505c-0.236,0.547-0.405,1.095-0.572,1.509
		c-0.136,0.472-0.403,0.57-0.738,0.57h-4.338c-0.169,0-0.319-0.026-0.451-0.08c-0.073-0.053-0.145-0.271-0.037-0.518L46.837,2.881z
		 M49.48,9.355c-0.167,0.549-0.401,0.981-0.572,1.573c-0.17,0.597-0.337,1.325-0.571,1.923c-0.169,0.598-0.336,1.19-0.569,1.78
		c-0.174,0.589-0.343,1.158-0.509,1.568h4.435L49.48,9.355z"/>
	<path d="M62.845,2.921c0-0.234,0.095-0.316,0.156-0.525c0.122-0.069,0.276-0.104,0.526-0.104h4.727c0.14,0,0.284,0.019,0.43,0.056
		s0.282,0.24,0.407,0.331c1.204,2.063,2.408,4.111,3.665,6.144c1.194,2.032,2.396,4.08,3.673,6.144V2.873
		c0.021-0.234,0.131-0.448,0.195-0.501c0.128-0.054,0.269-0.08,0.42-0.08h4.195c0.176,0,0.335,0.03,0.476,0.092
		c0.141,0.2,0.179,0.287,0.179,0.537V24.12c0,0.246-0.033,0.463-0.164,0.514c-0.129,0.051-0.283,0.076-0.461,0.076h-4.664
		c-0.135,0-0.195-0.024-0.315-0.072c-0.119-0.048-0.174-0.25-0.3-0.33c-1.304-2.283-2.598-4.413-3.819-6.67
		c-1.289-2.117-2.585-4.387-3.827-6.53V24.08c0,0.257-0.095,0.35-0.146,0.542c-0.12,0.059-0.282,0.088-0.553,0.088h-4.119
		c-0.256,0-0.411-0.033-0.532-0.1c-0.056-0.206-0.15-0.287-0.15-0.521V2.921z"/>
	<path d="M89.299,17.542c0.156,0.075,0.336,0.313,0.611,0.577c0.274,0.126,0.567,0.388,0.88,0.649
		c0.469,0.32,1.004,0.601,1.468,0.84c0.464,0.102,1.009,0.291,1.5,0.291c0.536,0,0.962-0.168,1.277-0.23
		c0.315-0.062,0.593-0.281,0.765-0.385c0.24-0.237,0.383-0.493,0.426-0.766c0.112-0.271,0.134-0.552,0.134-0.84
		c0-0.304-0.129-0.59-0.319-0.721c-0.259-0.27-0.544-0.523-0.857-0.764c-0.313-0.102-0.701-0.326-1.029-0.398
		c-0.393-0.21-0.699-0.271-0.907-0.456c-1.167-0.363-2.189-0.743-3.065-1.279s-1.606-1.101-2.19-1.695
		c-0.584-0.594-1.022-1.22-1.314-2.017c-0.292-0.659-0.438-1.5-0.438-2.385c0-0.912,0.166-1.778,0.565-2.599
		c0.33-0.683,0.881-1.307,1.514-1.871c0.702-0.565,1.478-1.064,2.463-1.361c0.918-0.296,2.031-0.374,3.204-0.374
		c0.881,0,1.675,0.055,2.517,0.302c0.841,0.249,1.61,0.563,2.371,0.94c0.381,0.246,0.685,0.495,0.979,0.611
		c0.294,0.252,0.564,0.501,0.757,0.746c0.256,0.106,0.419,0.347,0.557,0.581c0.138,0.097,0.173,0.318,0.173,0.387
		c0,0.208-0.017,0.272-0.119,0.337c-0.034,0.191-0.153,0.258-0.288,0.471L98.72,8.548c-0.157,0.229-0.313,0.274-0.469,0.274
		c-0.141,0-0.276-0.021-0.403-0.064c-0.06-0.181-0.194-0.234-0.334-0.298l-0.139-0.203c-0.172-0.09-0.424-0.322-0.684-0.557
		c-0.199-0.097-0.472-0.321-0.753-0.399c-0.281-0.216-0.57-0.279-0.868-0.332c-0.297-0.188-0.597-0.213-0.899-0.213
		c-0.308,0-0.604,0.015-0.892,0.044c-0.287,0.03-0.555,0.215-0.737,0.278c-0.25,0.203-0.41,0.287-0.544,0.529
		c-0.068,0.104-0.17,0.369-0.17,0.657s0.105,0.557,0.246,0.805c0.073,0.247,0.317,0.349,0.599,0.581
		c0.282,0.093,0.598,0.32,1.018,0.402c0.352,0.222,0.875,0.45,1.364,0.545c1.027,0.326,2.012,0.799,2.885,1.144
		c0.874,0.344,1.615,0.864,2.225,1.421c0.61,0.421,1.146,1.17,1.472,1.836c0.329,0.806,0.557,1.693,0.557,2.664
		c0,1.142-0.254,2.229-0.692,3.121c-0.438,0.894-1.031,1.577-1.779,2.329c-0.748,0.613-1.635,1.013-2.663,1.474
		c-1.027,0.322-2.165,0.415-3.342,0.415c-1.143,0-2.206-0.11-3.325-0.606c-1.055-0.358-2.069-0.93-2.976-1.576
		c-0.412-0.294-0.724-0.585-1.003-0.873c-0.278-0.288-0.46-0.548-0.611-0.777l-0.023-0.023c-0.013-0.011-0.078-0.018-0.083-0.021
		s-0.011-0.007-0.017-0.013c-0.005-0.01-0.01-0.017-0.015-0.02s-0.01-0.007-0.016-0.012c-0.255-0.272-0.316-0.519-0.316-0.599
		c0-0.229,0.061-0.47,0.316-0.582l2.505-2.568c0.177-0.079,0.399-0.258,0.469-0.258c0.115,0,0.232,0.016,0.284,0.187
		C89.027,17.291,89.158,17.339,89.299,17.542z"/>
	<path d="M105.274,2.938c0-0.251,0.028-0.34,0.154-0.546c0.125-0.066,0.279-0.1,0.461-0.1h9.336c0.63,0,1.243,0.051,1.893,0.291
		c0.594,0.101,1.089,0.38,1.627,0.697c0.468,0.316,0.912,0.808,1.329,1.194c0.417,0.525,0.734,1.07,1.018,1.636
		c0.285,0.427,0.465,1.007,0.611,1.602c0.146,0.731,0.253,1.332,0.253,1.935c0,0.896-0.221,1.781-0.526,2.655
		c-0.305,0.875-0.749,1.561-1.333,2.334c-0.584,0.635-1.298,1.201-2.075,1.561c-0.845,0.499-1.736,0.751-2.743,0.757h-4.403v7.136
		c0,0.507-0.187,0.621-0.63,0.621h-4.357c-0.172,0-0.323-0.028-0.454-0.084c-0.13-0.057-0.161-0.281-0.161-0.537V2.938z
		 M116.248,9.631c0-0.299-0.096-0.598-0.15-0.896c-0.123-0.437-0.27-0.58-0.507-0.844c-0.175-0.265-0.369-0.506-0.653-0.586
		c-0.285-0.219-0.588-0.259-0.98-0.259h-3.082v5.029h3.082c0.392,0,0.697-0.038,0.984-0.253c0.287-0.079,0.48-0.317,0.718-0.439
		c0.169-0.262,0.315-0.542,0.438-0.841C116.151,10.243,116.248,9.939,116.248,9.631z"/>
	<path d="M131.12,2.881c0.071-0.171,0.087-0.205,0.116-0.242c0.097-0.037,0.132-0.211,0.174-0.243
		c0.109-0.032,0.222-0.057,0.268-0.076c0.115-0.018,0.159-0.027,0.269-0.027h3.696c0.157,0,0.301,0.027,0.43,0.084
		c0.131,0.057,0.247,0.244,0.277,0.286l0.331,0.872l7.699,20.538c0.041,0.246,0.033,0.332-0.092,0.538
		c-0.057,0.066-0.292,0.1-0.5,0.1h-4.21c-0.248,0-0.417-0.022-0.542-0.068c-0.071-0.045-0.19-0.26-0.226-0.502
		c-0.241-0.414-0.41-0.962-0.576-1.509c-0.181-0.407-0.402-0.955-0.569-1.505h-7.746c-0.167,0.55-0.334,1.098-0.572,1.505
		c-0.169,0.547-0.337,1.095-0.569,1.509c-0.07,0.472-0.339,0.57-0.685,0.57h-4.329c-0.167,0-0.316-0.026-0.45-0.08
		c-0.133-0.053-0.145-0.271-0.036-0.518L131.12,2.881z M133.829,9.355c-0.236,0.549-0.404,0.981-0.573,1.573
		c-0.169,0.597-0.406,1.325-0.573,1.923c-0.166,0.598-0.403,1.19-0.572,1.78c-0.169,0.589-0.338,1.158-0.572,1.568h4.503
		L133.829,9.355z"/>
	<path d="M147.176,2.938c0-0.251,0.028-0.34,0.153-0.546c0.125-0.066,0.28-0.1,0.461-0.1h9.39c1.012,0,1.991,0.103,2.866,0.585
		c0.875,0.345,1.624,0.9,2.244,1.529c0.689,0.63,1.167,1.458,1.572,2.346c0.335,0.888,0.572,1.807,0.572,2.895
		c0,0.64-0.117,1.263-0.28,1.868c-0.233,0.744-0.435,1.328-0.803,1.751c-0.315,0.563-0.655,1.099-1.096,1.47
		c-0.44,0.51-0.972,0.847-1.456,1.15l3.705,7.339c0.104,0.214,0.154,0.302,0.276,0.541c0.126,0.24,0.154,0.328,0.154,0.542
		c0,0.085-0.027,0.289-0.15,0.334c-0.054,0.046-0.196,0.068-0.426,0.068h-4.987c-0.157,0-0.304-0.026-0.442-0.08
		c-0.138-0.053-0.183-0.264-0.266-0.49l-3.534-6.849h-2.352v6.798c0,0.507-0.187,0.621-0.629,0.621h-4.357
		c-0.172,0-0.323-0.028-0.453-0.084c-0.131-0.057-0.162-0.281-0.162-0.537V2.938z M158.587,9.679c0-0.299-0.098-0.598-0.163-0.896
		c-0.117-0.299-0.265-0.584-0.438-0.855c-0.24-0.272-0.437-0.523-0.713-0.613c-0.282-0.229-0.579-0.288-0.945-0.315
		c-0.228-0.011-0.501-0.02-0.765-0.029c-0.194-0.146-0.47-0.149-0.756-0.149h-2.029v5.571h2.728c0.162,0,0.313-0.003,0.454-0.009
		c0.141-0.005,0.29-0.013,0.446-0.023c0.317-0.021,0.618-0.076,0.899-0.303c0.282-0.088,0.472-0.336,0.707-0.605
		c0.167-0.27,0.31-0.555,0.431-0.856C158.492,10.293,158.587,9.988,158.587,9.679z"/>
	<path d="M167.524,2.938c0-0.251,0.029-0.34,0.157-0.546c0.123-0.066,0.28-0.1,0.457-0.1h14.471c0.169,0,0.338,0.034,0.485,0.104
		c0.115,0.208,0.145,0.301,0.145,0.557v3.78c0,0.091-0.03,0.316-0.145,0.405c-0.147,0.214-0.322,0.255-0.494,0.255h-9.474v3.787
		h7.293c0.174,0,0.332,0.023,0.457,0.21c0.123,0.049,0.174,0.129,0.174,0.379v3.254c0,0.213-0.047,0.285-0.162,0.493
		c-0.117,0.069-0.277,0.104-0.461,0.104h-7.301v3.989h9.797c0.419,0,0.623,0.123,0.623,0.645v3.813c0,0.054-0.021,0.24-0.062,0.282
		c-0.07,0.288-0.264,0.362-0.593,0.362h-14.754c-0.171,0-0.322-0.028-0.453-0.084c-0.13-0.057-0.161-0.281-0.161-0.537V2.938z"/>
	<path d="M187.065,2.921c0-0.234,0.064-0.316,0.222-0.525c0.057-0.069,0.245-0.104,0.428-0.104h4.807
		c0.094,0,0.284,0.019,0.383,0.056c0.194,0.037,0.282,0.24,0.358,0.331c1.303,2.063,2.521,4.111,3.714,6.144
		c1.194,2.032,2.396,4.08,3.612,6.144V2.873c0.145-0.234,0.192-0.448,0.255-0.501c0.193-0.054,0.271-0.08,0.485-0.08h4.132
		c0.108,0,0.335,0.03,0.545,0.092c0.072,0.2,0.108,0.287,0.108,0.537V24.12c0,0.246-0.031,0.463-0.092,0.514
		c-0.2,0.051-0.284,0.076-0.53,0.076h-4.664c-0.072,0-0.258-0.024-0.316-0.072c-0.058-0.048-0.236-0.25-0.299-0.33
		c-1.244-2.283-2.601-4.413-3.82-6.67c-1.237-2.117-2.587-4.387-3.827-6.53V24.08c0,0.257-0.047,0.35-0.193,0.542
		c-0.073,0.059-0.281,0.088-0.461,0.088h-4.198c-0.188,0-0.377-0.033-0.464-0.1c-0.122-0.206-0.186-0.287-0.186-0.521V2.921z"/>
	<path d="M227.223,3.849c0.227,0.192,0.29,0.262,0.469,0.348c0.042,0.224,0.034,0.464-0.161,0.581L225.126,8.5
		c-0.057,0.227-0.255,0.281-0.319,0.294c-0.203,0.014-0.281-0.009-0.511-0.205c-0.39-0.337-0.942-0.628-1.522-0.872
		c-0.579-0.107-1.175-0.294-1.79-0.294c-0.835,0-1.5,0.216-2.268,0.52c-0.63,0.304-1.212,0.809-1.744,1.37
		c-0.394,0.43-0.871,1.182-1.018,1.843c-0.279,0.662-0.488,1.488-0.488,2.342s0.209,1.54,0.488,2.337
		c0.146,0.658,0.624,1.407,1.018,1.832c0.532,0.563,1.114,1.065,1.744,1.37c0.768,0.304,1.432,0.386,2.268,0.386
		c0.614,0,1.214-0.055,1.797-0.303c0.584-0.108,1.141-0.4,1.53-0.876c0.231-0.059,0.445-0.083,0.507-0.071
		c0.061,0.011,0.261,0.059,0.323,0.282l2.559,3.771c0.056,0.117,0.063,0.354,0.023,0.435c-0.042,0.219-0.244,0.285-0.332,0.478
		c-1.034,0.613-1.967,1.15-3.076,1.474c-0.971,0.322-2.109,0.553-3.278,0.553c-0.957,0-2.032-0.21-2.946-0.493
		c-0.915-0.282-1.796-0.627-2.647-1.171c-0.851-0.544-1.523-1.14-2.294-1.787c-0.633-0.648-1.216-1.476-1.749-2.342
		c-0.394-0.867-0.868-1.768-1.145-2.704c-0.138-1.074-0.346-2.033-0.346-3.153s0.208-2.078,0.346-3.015
		c0.276-1.074,0.75-1.979,1.145-2.851c0.533-0.872,1.116-1.702,1.749-2.354c0.771-0.65,1.443-1.246,2.294-1.788
		c0.851-0.541,1.732-0.885,2.647-1.17c0.914-0.285,1.989-0.498,2.946-0.498c1.169,0,2.302,0.229,3.263,0.546
		C225.398,2.701,226.327,3.236,227.223,3.849z"/>
	<path d="M239.138,10.559l3.516-7.88c0.031-0.064,0.057-0.249,0.076-0.279c0.021-0.029,0.045-0.05,0.2-0.063
		c0.021-0.014,0.043-0.021,0.065-0.024c0.023-0.002,0.05-0.009,0.217-0.02h5.589c0.036,0,0.064,0.012,0.088,0.036
		c0.023,0.023,0.035,0.052,0.035,0.083c0,0.198-0.037,0.265-0.107,0.479l-6.962,12.674v8.493c0,0.528-0.255,0.653-0.629,0.653
		h-4.375c-0.24,0-0.319-0.033-0.376-0.1c-0.193-0.206-0.222-0.298-0.222-0.554v-8.509L229.434,2.89
		c-0.202-0.209-0.236-0.275-0.236-0.479c0-0.031,0.01-0.06,0.031-0.083c0.02-0.024,0.048-0.036,0.223-0.036h5.586
		c0.036,0.011,0.063,0.018,0.084,0.02c0.021,0.003,0.179,0.011,0.2,0.024c0.021,0.014,0.042,0.034,0.062,0.063
		c0.02,0.03,0.048,0.215,0.223,0.279L239.138,10.559z"/>
	<path display="none" fill="#E8727E" d="M259.412,15.201c0-1.046,0.061-1.934,0.319-2.804c0.258-0.729,0.566-1.565,1.057-2.368
		c0.36-0.664,0.897-1.294,1.479-2.023c0.581-0.598,1.198-1.008,1.849-1.509c0.788-0.363,1.469-0.675,2.316-0.936
		c0.849-0.262,1.715-0.323,2.602-0.323c1.249,0,2.593,0.269,3.754,0.682c1.034,0.547,2.12,1.194,2.988,2.086
		s1.504,1.994,2.045,3.186c0.401,1.192,0.672,2.575,0.672,4.01c0,0.906-0.061,1.793-0.318,2.66c-0.26,0.866-0.566,1.563-0.923,2.369
		c-0.371,0.666-0.894,1.436-1.476,2.03c-0.581,0.595-1.197,1.145-1.986,1.51c-0.65,0.366-1.466,0.817-2.309,0.939
		c-0.704,0.262-1.566,0.461-2.447,0.461c-0.887,0-1.753-0.199-2.602-0.461c-0.848-0.122-1.528-0.573-2.316-0.939
		c-0.65-0.365-1.268-0.915-1.849-1.51s-1.118-1.364-1.479-2.03c-0.49-0.806-0.799-1.503-1.057-2.369
		C259.473,16.994,259.412,16.107,259.412,15.201z M264.707,15.201c0,0.629,0.188,1.235,0.295,1.819
		c0.244,0.584,0.531,1.127,0.861,1.489c0.331,0.502,0.84,0.817,1.391,1.087c0.413,0.131,0.997,0.335,1.755,0.335
		c0.61,0,1.188-0.204,1.596-0.335c0.545-0.27,1.051-0.585,1.375-1.087c0.326-0.362,0.607-0.905,0.846-1.489
		c0.101-0.584,0.287-1.19,0.287-1.819c0-0.758-0.187-1.36-0.287-1.947c-0.238-0.586-0.52-0.997-0.846-1.509
		c-0.324-0.512-0.83-0.836-1.375-1.111c-0.407-0.136-0.985-0.342-1.596-0.342c-0.758,0-1.342,0.206-1.755,0.342
		c-0.551,0.275-1.06,0.6-1.391,1.111c-0.33,0.512-0.617,0.923-0.861,1.509C264.895,13.841,264.707,14.443,264.707,15.201z"/>
	<linearGradient id="SVGID_1_" gradientUnits="userSpaceOnUse" x1="281.7344" y1="13.4375" x2="299.8271" y2="13.4375">
		<stop  offset="0" style="stop-color:#E52324"/>
		<stop  offset="0.0033" style="stop-color:#E52122"/>
		<stop  offset="0.0372" style="stop-color:#EA0F0F"/>
		<stop  offset="0.0723" style="stop-color:#EC0404"/>
		<stop  offset="0.1099" style="stop-color:#ED0000"/>
		<stop  offset="0.1275" style="stop-color:#EE0303"/>
		<stop  offset="0.3026" style="stop-color:#F51B1B"/>
		<stop  offset="0.4103" style="stop-color:#F82424"/>
		<stop  offset="0.7621" style="stop-color:#FB5252"/>
		<stop  offset="0.8807" style="stop-color:#FD4949"/>
		<stop  offset="1" style="stop-color:#FF3B3B"/>
		<stop  offset="1" style="stop-color:#FF2424"/>
	</linearGradient>
	<path fill="url(#SVGID_1_)" d="M286.124,17.967c0.446,0.456,0.775,0.747,1.112,0.869c0.339,0.261,0.805,0.5,1.131,0.575
		c0.323,0.215,0.625,0.27,0.902,0.304c0.279,0.171,0.374,0.188,0.564,0.188c0.255,0,0.546-0.005,0.878-0.015
		c0.326-0.011,0.644-0.179,0.954-0.228c0.31-0.051,0.596-0.27,0.858-0.522c0.263-0.112,0.324-0.41,0.324-0.893
		c0-0.324-0.034-0.61-0.105-0.854c-0.207-0.112-0.313-0.344-0.582-0.422c-0.271-0.214-0.574-0.281-1.044-0.48
		c-0.334-0.06-0.689-0.13-1.208-0.348c-1.455-0.351-2.639-0.882-3.551-1.459c-0.91-0.575-1.72-1.185-2.286-1.83
		c-0.433-0.785-0.907-1.457-1.16-2.298c-0.113-0.841-0.309-1.704-0.309-2.591c0-0.966,0.242-2.021,0.591-2.749
		c0.486-0.867,1.063-1.669,1.728-2.268c0.804-0.6,1.683-1.125,2.639-1.438c1.095-0.314,2.25-0.536,3.467-0.536
		c0.681,0,1.467,0.168,2.094,0.237c0.743,0.209,1.375,0.318,1.972,0.606c0.595,0.288,1.182,0.618,1.761,1.131
		c0.579,0.512,1.154,0.931,1.728,1.533c0.113,0.272,0.303,0.534,0.307,0.789c0.003,0.255-0.203,0.378-0.488,0.65
		c-0.389,0.488-0.9,0.837-1.268,1.181c-0.5,0.483-0.872,0.851-1.39,1.38c-0.079,0.065-0.292,0.108-0.372,0.262
		c-0.211,0.017-0.284,0.016-0.492-0.004c-0.07-0.158-0.276-0.192-0.34-0.238c-0.068-0.047-0.259-0.241-0.308-0.308
		c-0.502-0.536-0.895-0.849-1.458-1.076c-0.563-0.09-1.106-0.136-1.494-0.136c-0.592,0-1.112,0.057-1.436,0.309
		c-0.325,0.113-0.547,0.424-0.535,0.933c0.013,0.312,0.213,0.584,0.324,0.819c0.251,0.096,0.526,0.313,0.826,0.372
		c0.301,0.06,0.611,0.246,0.932,0.282c0.453,0.037,0.762,0.218,1.051,0.265c0.991,0.329,2.07,0.678,2.962,1.18
		c0.894,0.364,1.716,0.918,2.349,1.523c0.627,0.605,1.175,1.414,1.508,2.287c0.333,0.875,0.568,1.848,0.568,3.196
		c0,1.211-0.265,2.353-0.657,3.286c-0.525,0.933-1.147,1.782-2.002,2.549c-0.854,0.63-1.792,1.176-2.944,1.5
		c-1.155,0.324-2.357,0.423-3.741,0.423c-0.672,0-1.487-0.043-2.311-0.115c-0.685-0.213-1.493-0.329-2.151-0.631
		c-0.797-0.439-1.437-0.787-2.058-1.314c-0.624-0.398-1.207-0.985-1.746-1.766c-0.21-0.094-0.261-0.33-0.296-0.433
		c-0.041-0.241-0.19-0.481-0.187-0.582c0.003-0.237,0.157-0.467,0.195-0.549c0.036-0.222,0.091-0.294,0.306-0.492l2.338-2.392
		c0.292-0.272,0.565-0.318,0.683-0.277C285.512,17.53,285.802,17.643,286.124,17.967z"/>
	<g>
		
			<linearGradient id="SVGID_2_" gradientUnits="userSpaceOnUse" x1="919.4131" y1="728.8018" x2="932.4711" y2="745.6817" gradientTransform="matrix(0.5009 0.8592 -0.861 0.502 432.7962 -1154.0823)">
			<stop  offset="0" style="stop-color:#290000"/>
			<stop  offset="0.022" style="stop-color:#340000"/>
			<stop  offset="0.1327" style="stop-color:#640000"/>
			<stop  offset="0.2463" style="stop-color:#8E0000"/>
			<stop  offset="0.361" style="stop-color:#B10000"/>
			<stop  offset="0.4773" style="stop-color:#CB0000"/>
			<stop  offset="0.5958" style="stop-color:#DE0000"/>
			<stop  offset="0.7177" style="stop-color:#E90000"/>
			<stop  offset="0.8485" style="stop-color:#ED0000"/>
			<stop  offset="0.851" style="stop-color:#EE0303"/>
			<stop  offset="0.8764" style="stop-color:#F51B1B"/>
			<stop  offset="0.892" style="stop-color:#F82424"/>
			<stop  offset="0.9244" style="stop-color:#FB5252"/>
			<stop  offset="0.9395" style="stop-color:#FD4949"/>
			<stop  offset="0.9546" style="stop-color:#FF3B3B"/>
			<stop  offset="1" style="stop-color:#FF2424"/>
		</linearGradient>
		<path fill="url(#SVGID_2_)" d="M258.858,21.114c1.45,0.891,4.025,2.396,4.025,2.396l0.958,0.595
			c-0.644-0.674-0.902-1.757-0.934-3.641c-0.013-0.827-0.016-1.639-0.014-2.271l-0.004-0.001l0.005-8.451l7.303-4.157l0.021,0.012
			l0.006-0.003c-0.604-0.328-2.614-1.547-3.291-2.035c-0.816-0.354-1.42-0.644-1.981-0.876c-0.604-0.095-1.151-0.246-1.702-0.045
			l-6.214,3.306l-0.014,5.571l0.005-0.003c-0.009,0.53-0.044,2.661-0.005,5.162C257.065,19.342,257.406,20.225,258.858,21.114z"/>
		
			<linearGradient id="SVGID_3_" gradientUnits="userSpaceOnUse" x1="919.4131" y1="728.8018" x2="932.4711" y2="745.6817" gradientTransform="matrix(0.5009 0.8592 -0.861 0.502 432.7962 -1154.0823)">
			<stop  offset="0" style="stop-color:#290000"/>
			<stop  offset="0.0064" style="stop-color:#340000"/>
			<stop  offset="0.0385" style="stop-color:#640000"/>
			<stop  offset="0.0715" style="stop-color:#8E0000"/>
			<stop  offset="0.1048" style="stop-color:#B10000"/>
			<stop  offset="0.1386" style="stop-color:#CB0000"/>
			<stop  offset="0.173" style="stop-color:#DE0000"/>
			<stop  offset="0.2084" style="stop-color:#E90000"/>
			<stop  offset="0.2464" style="stop-color:#ED0000"/>
			<stop  offset="0.2707" style="stop-color:#EE0303"/>
			<stop  offset="0.5128" style="stop-color:#F51B1B"/>
			<stop  offset="0.6616" style="stop-color:#F82424"/>
			<stop  offset="0.7644" style="stop-color:#FB4C4C"/>
			<stop  offset="0.8773" style="stop-color:#FB5252"/>
			<stop  offset="0.9159" style="stop-color:#FD4949"/>
			<stop  offset="0.9546" style="stop-color:#FF3B3B"/>
			<stop  offset="1" style="stop-color:#FF2424"/>
		</linearGradient>
		<path fill="url(#SVGID_3_)" d="M258.858,21.114c1.45,0.891,4.025,2.396,4.025,2.396l0.958,0.595
			c-0.644-0.674-0.902-1.757-0.934-3.641c-0.013-0.827-0.016-1.639-0.014-2.271l-0.004-0.001l0.005-8.451l7.303-4.157l0.021,0.012
			l0.006-0.003c-0.604-0.328-2.614-1.547-3.291-2.035c-0.816-0.354-1.42-0.644-1.981-0.876c-0.604-0.095-1.151-0.246-1.702-0.045
			l-6.214,3.306l-0.014,5.571l0.005-0.003c-0.009,0.53-0.044,2.661-0.005,5.162C257.065,19.342,257.406,20.225,258.858,21.114z"/>
		
			<linearGradient id="SVGID_4_" gradientUnits="userSpaceOnUse" x1="92.9995" y1="-76.0229" x2="106.0707" y2="-59.126" gradientTransform="matrix(-1 0.0052 -0.0052 -1 373.0502 -60.2384)">
			<stop  offset="0" style="stop-color:#290000"/>
			<stop  offset="0.0168" style="stop-color:#3F0404"/>
			<stop  offset="0.059" style="stop-color:#6F0C0C"/>
			<stop  offset="0.1023" style="stop-color:#991414"/>
			<stop  offset="0.146" style="stop-color:#BC1919"/>
			<stop  offset="0.1904" style="stop-color:#D61E1E"/>
			<stop  offset="0.2355" style="stop-color:#E92121"/>
			<stop  offset="0.282" style="stop-color:#F42323"/>
			<stop  offset="0.3318" style="stop-color:#F82424"/>
			<stop  offset="0.5919" style="stop-color:#ED0000"/>
			<stop  offset="0.6203" style="stop-color:#EF0909"/>
			<stop  offset="0.7534" style="stop-color:#F53131"/>
			<stop  offset="0.8594" style="stop-color:#F94949"/>
			<stop  offset="0.9244" style="stop-color:#FB5252"/>
			<stop  offset="0.9395" style="stop-color:#FD4949"/>
			<stop  offset="0.9546" style="stop-color:#FF3B3B"/>
			<stop  offset="1" style="stop-color:#FF2424"/>
		</linearGradient>
		<path fill="url(#SVGID_4_)" d="M267.056,0.553c-1.486,0.699-4.104,2.142-4.104,2.142l-0.966,0.591
			c0.945-0.259,2.013,0.179,3.779,1.095c0.645,0.333,1.268,0.667,1.854,0.984l0.003-0.002l7.316,4.303l0.003,8.472l-0.022,0.014
			v0.006c0.607-0.467,2.677-1.456,3.475-1.973c0.668-0.383,1.24-0.868,1.739-1.207c0.388-0.375,0.649-0.811,0.865-1.219l0.039-7.362
			l-4.667-2.813l-0.001,0.006c-0.493-0.138-2.315-1.299-4.396-2.449C269.604-0.229,268.542-0.286,267.056,0.553z"/>
		<path display="none" d="M261.985,3.285c0.403-0.069,0.963-0.053,1.504,0.016c0.543,0.205,0.934,0.443,1.457,0.569
			c0.386,0.256,0.903,0.522,1.42,0.792c0.377,0.269,0.892,0.402,1.267,0.677l-0.03,0.001l0.003-0.003l0.015-0.009l0.016,0.009
			c0.6,0.323,1.198,0.784,1.795,1.109l1.932,1.112c1.193,0.654,2.387,1.307,3.575,2.106c-1.203-0.773-2.402-1.417-3.61-2.06
			l-1.926-1.107c-0.6-0.322-1.197-0.646-1.795-0.972h0.03l-0.003,0.002l-0.016,0.009l-0.015-0.009
			c-0.512-0.275-0.888-0.549-1.402-0.819c-0.377-0.27-0.892-0.542-1.272-0.662c-0.521-0.259-0.909-0.508-1.446-0.582
			C262.946,3.251,262.392,3.228,261.985,3.285z"/>
		
			<linearGradient id="SVGID_5_" gradientUnits="userSpaceOnUse" x1="109.9155" y1="-81.1724" x2="92.3371" y2="-78.1943" gradientTransform="matrix(-1 0.0052 -0.0052 -1 373.0502 -60.2384)">
			<stop  offset="0" style="stop-color:#94191A"/>
			<stop  offset="0.0185" style="stop-color:#B11112"/>
			<stop  offset="0.0402" style="stop-color:#CB0A0A"/>
			<stop  offset="0.0625" style="stop-color:#DE0404"/>
			<stop  offset="0.0854" style="stop-color:#E90101"/>
			<stop  offset="0.1099" style="stop-color:#ED0000"/>
			<stop  offset="0.1284" style="stop-color:#EE0303"/>
			<stop  offset="0.3127" style="stop-color:#F51B1B"/>
			<stop  offset="0.426" style="stop-color:#F82424"/>
			<stop  offset="0.7621" style="stop-color:#FB5252"/>
			<stop  offset="0.8807" style="stop-color:#FD4949"/>
			<stop  offset="1" style="stop-color:#FF3B3B"/>
			<stop  offset="1" style="stop-color:#FF2424"/>
		</linearGradient>
		<path fill="url(#SVGID_5_)" d="M269.013,20.165l-6.122-3.669v1.739l0.004,0.002c-0.002,0.773,0.002,1.447,0.016,2.277
			c0.029,1.788,0.271,2.729,0.841,3.533l5.019,2.953l4.685-2.647l-0.006-0.004c0.363-0.257,2.358-1.222,4.402-2.574
			c2.327-1.303,2.908-2.13,2.946-3.859c0.034-1.731,0.218-4.682,0.218-4.682l0.008-1.188c-0.304,0.936-1.117,1.721-2.849,2.688
			c-0.631,0.495-1.25,0.834-1.838,1.149l0.001,0.003L269.013,20.165z"/>
		<path display="none" d="M281.022,12.046c-0.211,0.542-0.507,0.916-0.837,1.388c-0.331,0.335-0.829,0.637-1.191,0.93
			c-0.503,0.293-0.874,0.575-1.385,0.854c-0.371,0.279-0.884,0.557-1.259,0.691l0.013-0.036l0.001,0.003l0.01,0.023l-0.021,0.014
			c-0.599,0.462-1.199,0.785-1.802,1.106l-1.932,1.104c-1.2,0.64-2.401,1.28-3.606,2.041c1.19-0.786,2.386-1.437,3.58-2.226
			l1.795-0.972c0.598-0.463,1.32-0.785,1.933-1.106l-0.023,0.036l-0.122-0.003l-0.015-0.024l0.159-0.012
			c0.378-0.272,0.889-0.548,1.263-0.826c0.51-0.277,0.884-0.415,1.386-0.704c0.367-0.288,0.86-0.587,1.199-1.053
			C280.501,12.951,280.8,12.583,281.022,12.046z"/>
		<path display="none" d="M263.842,24.104c-0.329-0.332-0.594-0.861-0.666-1.262c-0.213-0.54-0.244-1.089-0.267-1.636
			c-0.021-0.411-0.03-0.959-0.037-1.508c-0.005-0.412-0.008-0.958-0.007-1.507l0.019,0.027l-0.005-0.001l-0.019-0.008v-0.02
			c-0.001-0.646-0.001-1.433,0.001-2.079l0.006-2.077c0.006-1.432,0.013-2.863,0.028-4.295c0.014,1.432,0.019,2.863,0.023,4.295
			l0.002,2.078c0.002,0.646,0,1.432-0.002,2.078l-0.018-0.027l0.003,0.001l0.02,0.008l-0.001,0.021
			c-0.002,0.548,0,1.092,0.003,1.505c0.007,0.548,0.009,1.096,0.025,1.506c0.017,0.546,0.181,1.093,0.25,1.633
			C263.265,23.236,263.521,23.765,263.842,24.104z"/>
	</g>
</g>
</svg>
