<?xml version="1.0" encoding="utf-8"?>
<!-- Generator: Adobe Illustrator 16.0.3, SVG Export Plug-In . SVG Version: 6.00 Build 0)  -->
<!DOCTYPE svg PUBLIC "-//W3C//DTD SVG 1.1//EN" "http://www.w3.org/Graphics/SVG/1.1/DTD/svg11.dtd">
<svg version="1.1" id="Capa_1" xmlns="http://www.w3.org/2000/svg" xmlns:xlink="http://www.w3.org/1999/xlink" x="0px" y="0px"
	 width="377px" height="104px" viewBox="0 0 377 104" enable-background="new 0 0 377 104" xml:space="preserve">
<g>
	<path d="M78.037,36.605c4.04,0,6.959,1.28,9.679,3.719c0.36,0.32,0.36,0.8,0.04,1.12l-2.44,2.52c-0.28,0.32-0.68,0.32-1,0
		c-1.68-1.479-3.919-2.359-6.159-2.359c-5.119,0-8.918,4.279-8.918,9.318c0,4.999,3.839,9.238,8.958,9.238
		c2.399,0,4.439-0.919,6.119-2.279c0.32-0.28,0.76-0.24,1,0l2.48,2.56c0.32,0.28,0.24,0.8-0.04,1.08
		c-2.72,2.64-6.159,3.879-9.719,3.879c-7.999,0-14.438-6.359-14.438-14.357C63.6,43.043,70.039,36.605,78.037,36.605z"/>
	<path d="M92.999,37.765c0-0.4,0.32-0.76,0.76-0.76h11.438c4.799,0,8.718,3.839,8.718,8.598c0,3.68-2.439,6.679-5.919,8.079
		l5.479,10.158c0.28,0.52,0,1.16-0.68,1.16h-4.199c-0.36,0-0.56-0.2-0.64-0.36l-5.319-10.598h-4.439V64.24
		c0,0.4-0.36,0.76-0.76,0.76h-3.679c-0.44,0-0.76-0.36-0.76-0.76V37.765z M104.757,49.763c2.12,0,3.959-1.84,3.959-4.08
		c0-2.12-1.84-3.879-3.959-3.879h-6.519v7.959H104.757z"/>
	<path d="M131.996,36.605c7.999,0,14.398,6.438,14.398,14.438c0,7.999-6.399,14.357-14.398,14.357
		c-7.999,0-14.357-6.359-14.357-14.357C117.639,43.043,123.998,36.605,131.996,36.605z M131.996,60.201
		c5.04,0,9.199-4.119,9.199-9.158s-4.159-9.239-9.199-9.239c-5.039,0-9.158,4.2-9.158,9.239S126.957,60.201,131.996,60.201z"/>
	<path d="M148.958,37.964c-0.16-0.56,0.16-0.959,0.72-0.959h3.679c0.32,0,0.64,0.28,0.72,0.56l4.16,15.958h0.16l6.359-16.477
		c0.08-0.24,0.28-0.44,0.68-0.44h0.72c0.4,0,0.6,0.2,0.68,0.44l6.399,16.477h0.16l4.079-15.958c0.08-0.28,0.4-0.56,0.72-0.56h3.679
		c0.56,0,0.88,0.4,0.72,0.959l-7.559,26.875c-0.08,0.32-0.4,0.56-0.72,0.56h-0.64c-0.36,0-0.6-0.2-0.68-0.44l-7.159-18.117h-0.2
		l-7.079,18.117c-0.12,0.24-0.28,0.44-0.68,0.44h-0.64c-0.32,0-0.64-0.24-0.72-0.56L148.958,37.964z"/>
	<path d="M187.278,37.765c0-0.4,0.32-0.76,0.72-0.76h9.479c7.718,0,14.038,6.279,14.038,13.958c0,7.759-6.319,14.038-14.038,14.038
		h-9.479c-0.4,0-0.72-0.36-0.72-0.76V37.765z M196.997,60.121c5.199,0,8.999-3.919,8.999-9.158c0-5.199-3.8-9.119-8.999-9.119h-4.56
		v18.277H196.997z"/>
	<path fill="#FF0000" d="M211.758,61.48l2.08-2.12c0.44-0.4,0.84-0.32,1.2,0.04c0.52,0.56,1.32,1.28,2.639,1.28
		c1.56,0,3.2-1.28,3.2-4.039V37.765c0-0.4,0.32-0.76,0.76-0.76h3.759c0.44,0,0.76,0.36,0.76,0.76v18.877
		c0,5.559-3.72,8.758-8.399,8.758c-3.479,0-5.399-2.08-6.079-2.919C211.479,62.161,211.519,61.761,211.758,61.48z"/>
	<path fill="#FF0000" d="M232.277,37.765c0-0.4,0.36-0.76,0.76-0.76h3.799c0.44,0,0.76,0.36,0.76,0.76v16.357
		c0,3.399,2.319,6.079,5.799,6.079s5.839-2.679,5.839-6.039V37.765c0-0.4,0.32-0.76,0.76-0.76h3.799c0.4,0,0.76,0.36,0.76,0.76
		v16.637c0,6.079-4.839,10.998-11.158,10.998c-6.279,0-11.118-4.919-11.118-10.998V37.765z"/>
	<path fill="#FF0000" d="M261.437,37.765c0-0.4,0.32-0.76,0.76-0.76h11.438c4.799,0,8.718,3.839,8.718,8.598
		c0,3.68-2.439,6.679-5.919,8.079l5.479,10.158c0.28,0.52,0,1.16-0.68,1.16h-4.199c-0.36,0-0.56-0.2-0.64-0.36l-5.319-10.598h-4.439
		V64.24c0,0.4-0.36,0.76-0.76,0.76h-3.679c-0.44,0-0.76-0.36-0.76-0.76V37.765z M273.195,49.763c2.12,0,3.959-1.84,3.959-4.08
		c0-2.12-1.84-3.879-3.959-3.879h-6.519v7.959H273.195z"/>
	<path fill="#FF0000" d="M293.436,51.522l-9.119-13.358c-0.32-0.52,0-1.16,0.64-1.16h4.079c0.32,0,0.52,0.2,0.64,0.36l6.399,9.198
		l6.399-9.198c0.12-0.16,0.32-0.36,0.64-0.36h4.12c0.64,0,0.959,0.64,0.64,1.16l-9.238,13.318V64.24c0,0.4-0.36,0.76-0.76,0.76
		h-3.679c-0.44,0-0.76-0.36-0.76-0.76V51.522z"/>
</g>
</svg>
