<?xml version="1.0" encoding="utf-8"?>
<!-- Generator: Adobe Illustrator 16.0.3, SVG Export Plug-In . SVG Version: 6.00 Build 0)  -->
<!DOCTYPE svg PUBLIC "-//W3C//DTD SVG 1.1//EN" "http://www.w3.org/Graphics/SVG/1.1/DTD/svg11.dtd">
<svg version="1.1" id="Retribution_3_1_" xmlns="http://www.w3.org/2000/svg" xmlns:xlink="http://www.w3.org/1999/xlink" x="0px"
	 y="0px" width="110px" height="110px" viewBox="0 0 110 110" enable-background="new 0 0 110 110" xml:space="preserve">
<g>
	<path d="M25.507,55.944c-0.516,0-0.911-0.38-0.911-0.883v-0.054c0-3.19,0.49-6.343,1.453-9.344
		c0.149-0.476,0.667-0.733,1.145-0.584c0.487,0.149,0.743,0.664,0.594,1.141c-0.921,2.84-1.37,5.786-1.37,8.788
		C26.417,55.51,25.996,55.944,25.507,55.944L25.507,55.944z M63.754,27.777c2.852,0.909,5.527,2.269,7.972,4.034
		c0.163,0.122,0.354,0.173,0.526,0.173c0.289,0,0.574-0.121,0.751-0.378c0.285-0.406,0.203-0.976-0.204-1.262
		c-2.594-1.874-5.46-3.327-8.488-4.305c-0.489-0.149-0.992,0.123-1.154,0.596C63.006,27.11,63.278,27.628,63.754,27.777
		L63.754,27.777z M30.558,38.453c0.165,0.121,0.342,0.177,0.533,0.177c0.285,0,0.555-0.126,0.747-0.382
		c1.749-2.431,3.885-4.562,6.3-6.329c0.408-0.299,0.505-0.87,0.192-1.275c-0.285-0.407-0.855-0.504-1.267-0.205
		c-2.578,1.888-4.847,4.154-6.705,6.751C30.058,37.597,30.152,38.167,30.558,38.453L30.558,38.453z M45.799,27.873
		c0.093,0,0.189-0.015,0.284-0.042c2.852-0.921,5.813-1.411,8.828-1.411c0.519-0.016,0.924-0.408,0.91-0.925
		c0-0.501-0.407-0.908-0.91-0.908c-3.206,0.01-6.369,0.514-9.385,1.506c-0.49,0.163-0.746,0.677-0.584,1.154
		C45.065,27.628,45.418,27.873,45.799,27.873L45.799,27.873z M27.816,63.889c-0.151-0.485-0.666-0.747-1.141-0.583
		c-0.491,0.149-0.749,0.669-0.585,1.154c0.977,3.015,2.443,5.867,4.333,8.461c0.177,0.245,0.462,0.38,0.747,0.38
		c0.176,0,0.368-0.068,0.527-0.177c0.411-0.295,0.505-0.869,0.206-1.276C30.124,69.417,28.753,66.731,27.816,63.889L27.816,63.889z
		 M63.862,82.198c-2.839,0.923-5.813,1.385-8.83,1.399c-0.515,0-0.906,0.408-0.906,0.91s0.405,0.913,0.906,0.913
		c3.207,0,6.372-0.506,9.396-1.484c0.479-0.163,0.737-0.676,0.574-1.154C64.854,82.307,64.338,82.035,63.862,82.198L63.862,82.198z
		 M82.17,46.07c0.123,0.382,0.476,0.625,0.869,0.625c0.095,0,0.19-0.014,0.285-0.055c0.476-0.149,0.747-0.664,0.584-1.141
		c-0.991-3.029-2.458-5.879-4.346-8.46c-0.313-0.409-0.869-0.49-1.276-0.205c-0.407,0.299-0.503,0.869-0.204,1.276
		C79.861,40.542,81.232,43.218,82.17,46.07L82.17,46.07z M46.19,82.211c-2.837-0.923-5.524-2.278-7.959-4.061
		c-0.405-0.299-0.989-0.204-1.274,0.204c-0.299,0.411-0.202,0.981,0.204,1.28c2.594,1.888,5.445,3.327,8.473,4.302
		c0.099,0.044,0.191,0.055,0.285,0.055c0.397,0,0.749-0.245,0.869-0.639C46.938,82.876,46.681,82.36,46.19,82.211L46.19,82.211z
		 M83.583,55.007c0,3.015-0.462,5.976-1.386,8.831c-0.149,0.472,0.108,0.988,0.598,1.155c0.081,0.023,0.177,0.037,0.271,0.037
		c0.394,0,0.747-0.244,0.869-0.638c0.992-3.012,1.48-6.18,1.48-9.385v-0.123c0-0.501-0.407-0.855-0.909-0.855
		C84.004,54.029,83.583,54.504,83.583,55.007L83.583,55.007z M78.136,71.797c-1.765,2.428-3.884,4.56-6.314,6.326
		c-0.408,0.299-0.503,0.87-0.204,1.277c0.177,0.245,0.462,0.384,0.747,0.384c0.177,0,0.367-0.071,0.529-0.18
		c2.581-1.888,4.849-4.143,6.724-6.736c0.298-0.394,0.203-0.978-0.204-1.263C79.006,71.305,78.436,71.387,78.136,71.797
		L78.136,71.797z M107.5,2.5v105H2.5V2.5H107.5z M92.03,56.393c0-0.598,0.136-1.155,0.381-1.657l-0.992-1.684
		c0.027,0.654,0.096,1.291,0.096,1.956c0,1.752-0.163,3.45-0.408,5.147l1.413-1.901C92.207,57.696,92.03,57.072,92.03,56.393
		L92.03,56.393z M93.593,77.077c0-0.934,0.38-1.779,0.964-2.431l-4.591-9.194c-3.64,12.159-13.459,21.636-25.791,24.841l7.348,4.36
		c0.61-1.032,1.684-1.752,2.96-1.752c0.377,0,0.747,0.095,1.087,0.217l18.146-15.469C93.674,77.461,93.593,77.281,93.593,77.077
		L93.593,77.077z M20.455,71.102l-4.89-4.89c-0.177,0.085-0.382,0.085-0.57,0.123L9.317,72.69l3.136,8.298L20.455,71.102z
		 M11.57,86.517l-1.575,1.959l2.706,1.042L11.57,86.517z M13.285,35.176c0,1.333-0.695,2.514-1.728,3.193l8.57,5.84
		c1.588-5.122,4.309-9.738,7.822-13.636l-6.789-7.441c-0.394,0.136-0.828,0.229-1.276,0.229c-0.149,0-0.285-0.027-0.448-0.041
		l-8.516,8.327C12.291,32.219,13.285,33.589,13.285,35.176L13.285,35.176z M83.908,25.74c-0.557-0.285-1.059-0.694-1.412-1.21
		l-5.895,1.114c2.404,1.766,4.604,3.803,6.52,6.098L83.908,25.74z M22.151,55.007c0,18.118,14.739,32.854,32.857,32.854
		c18.112,0,32.853-14.736,32.853-32.854c0-18.13-14.74-32.87-32.853-32.87C36.891,22.138,22.151,36.891,22.151,55.007L22.151,55.007
		z M71.509,22.479l-0.788-2.253c-0.027,0-0.054,0-0.067,0c-1.983,0-3.694-1.195-4.455-2.893l-4.699,1.777
		C65.03,19.749,68.398,20.89,71.509,22.479L71.509,22.479z M19.138,61.703l-1.752,1.956c-0.016,0.136-0.053,0.245-0.066,0.367
		l3.392,3.396C20.048,65.591,19.506,63.672,19.138,61.703L19.138,61.703z M18.501,55.007c0-2.212,0.229-4.372,0.607-6.492
		l-9.953,7.351l4.495,4.496c0.22-0.058,0.435-0.136,0.664-0.136c0.71,0,1.317,0.272,1.835,0.649l2.352-2.621l0.174,0.149
		C18.554,57.275,18.501,56.151,18.501,55.007L18.501,55.007z M13.595,84.018l2.584,6.845l7.847,3.056
		c0.448-0.991,1.346-1.67,2.434-1.915l6.109-8.257c-3.922-3.07-7.226-6.899-9.628-11.3L13.595,84.018z M46.273,90.401l3.381,1.888
		c0.667-0.557,1.509-0.896,2.419-0.92C50.092,91.203,48.162,90.876,46.273,90.401L46.273,90.401z M52.508,91.379
		c0.763,0.068,1.469,0.298,2.053,0.723l0.92-0.614c-0.163,0-0.313,0.031-0.485,0.031C54.163,91.519,53.336,91.433,52.508,91.379
		L52.508,91.379z M97.083,73.464c0.054,0,0.108-0.041,0.163-0.041c0.407,0,0.787,0.112,1.154,0.245l3.49-2.975l-6.139-10.332
		c-0.407-0.031-0.802-0.112-1.154-0.248l-2.499,3.382L97.083,73.464z M91.487,42.146c-0.517-0.679-0.855-1.52-0.855-2.445
		c0-0.216,0.04-0.421,0.067-0.637l-3.979-2.051c1.508,2.645,2.676,5.487,3.49,8.5L91.487,42.146z M92.085,36.645
		c0.516-0.435,1.141-0.749,1.833-0.869l5.188-13.638c-0.136-0.2-0.299-0.406-0.394-0.65l-9.426,1.768
		c-0.326,1.304-1.331,2.336-2.608,2.715l-0.977,7.388L92.085,36.645z M86,9.834l-10.729,4.061c0.149,0.461,0.244,0.952,0.244,1.467
		c0,1.686-0.842,3.165-2.146,4.034l1.331,3.762l7.131-1.33c0.203-1.63,1.426-2.949,3.028-3.261L86,9.834z M69.39,8.071l0.869,2.468
		c0.136-0.01,0.255-0.038,0.395-0.038c1.127,0,2.146,0.393,2.974,1.046l9.209-3.477H69.39z M38.424,8.071l16.678,10.43
		c0.043,0,0.08,0,0.122,0l10.648-4.021c0.218-1.193,0.869-2.226,1.793-2.932l-1.223-3.477H38.424z M30.694,12.333l-7.021,6.847
		c0.014,0.121,0.043,0.229,0.043,0.35c0,0.653-0.179,1.253-0.448,1.781l6.626,7.266c5.487-5.229,12.59-8.747,20.482-9.751
		l-12.932-8.095c-0.475,1.672-1.994,2.893-3.816,2.893C32.461,13.624,31.413,13.123,30.694,12.333L30.694,12.333z M11.179,8.071
		l7.239,7.931c0.462-0.178,0.952-0.285,1.467-0.285c0.938,0,1.781,0.336,2.431,0.897l7.322-7.145
		c0.023-0.49,0.121-0.964,0.299-1.398H11.179z M8.07,30.531l8.828-8.623c-0.518-0.65-0.846-1.467-0.846-2.378
		c0-0.569,0.14-1.112,0.368-1.587L8.07,8.777V30.531z M8.07,53.201l9.764-7.196L8.07,39.349V53.201z M8.07,69.906l3.978-4.441
		c-0.515-0.557-0.855-1.304-0.855-2.119c0-0.448,0.094-0.869,0.271-1.246L8.07,58.701V69.906z M8.07,86.438l2.36-2.937L8.07,77.24
		V86.438z M17.386,101.949l-3.37-8.94L8.057,90.7v11.25H17.386z M19.94,100.805l3.163-4.265l-5.598-2.173L19.94,100.805z
		 M37.053,101.949l-8.691-3.372c-0.368,0.136-0.763,0.231-1.168,0.231c-0.71,0-1.317-0.258-1.864-0.611l-2.768,3.752H37.053z
		 M41.615,100.723l6.725-4.469c-0.069-0.298-0.112-0.597-0.112-0.923c0-0.217,0.029-0.421,0.057-0.621l-14.449-8.003l-4.445,5.99
		c0.763,0.638,1.267,1.565,1.267,2.635c0,0.384-0.099,0.72-0.205,1.06L41.615,100.723z M61.363,101.949l-6.518-3.617
		c-0.707,0.611-1.618,0.995-2.623,0.995c-0.883,0-1.687-0.285-2.337-0.764l-5.065,3.372L61.363,101.949z M65.954,101.293
		l4.645-3.938l-9.996-5.936l-4.496,3.001c0.057,0.299,0.109,0.598,0.109,0.91c0,0.19-0.029,0.37-0.053,0.557L65.954,101.293z
		 M78.337,101.949L74.728,99.8c-0.082,0-0.163,0.054-0.258,0.054c-0.68,0-1.291-0.241-1.834-0.598l-3.138,2.693H78.337z
		 M82.795,101.352l19.068-12.078l-4.306-8.611c-0.108,0.014-0.203,0.068-0.312,0.068c-0.774,0-1.453-0.299-2.038-0.707
		L77.661,94.995c0.177,0.421,0.285,0.879,0.285,1.382c0,0.666-0.23,1.236-0.557,1.766L82.795,101.352z M101.945,92.523
		l-14.886,9.426h14.886V92.523z M101.945,74.307l-1.44,1.208c0.245,0.479,0.395,1.005,0.395,1.562c0,0.883-0.354,1.657-0.869,2.282
		l1.915,3.816V74.307z M101.945,50.201l-2.784,3.733c0.529,0.679,0.869,1.535,0.869,2.458c0,1.276-0.611,2.404-1.549,3.137
		l3.464,5.813V50.201z M101.945,44.874l-4.509-2.319c-0.721,0.706-1.715,1.154-2.798,1.154c-0.259,0-0.503-0.041-0.733-0.083
		l-1.902,4.986l2.432,4.113c0.502-0.202,1.032-0.324,1.589-0.324c0.258,0,0.517,0.025,0.761,0.066l5.147-6.94L101.945,44.874z
		 M101.945,23.717c-0.149,0-0.286-0.07-0.421-0.097l-4.822,12.674c1.154,0.706,1.942,1.954,1.942,3.407
		c0,0.107-0.027,0.219-0.04,0.326l3.341,1.725V23.717z M101.945,8.071H89.043L87.59,19.072c0.569,0.352,1.031,0.842,1.344,1.426
		l9.97-1.874c0.584-1.102,1.697-1.861,3.028-1.861L101.945,8.071z M101.945,8.071"/>
</g>
<g id="TOS_Coin_1_">
	<g id="Short_logo_3_">
		<path fill="#010202" d="M33.858,49.327c0-0.129,0.018-0.173,0.09-0.279c0.073-0.033,0.154-0.051,0.28-0.051h8.226
			c0.084,0,0.163,0.016,0.237,0.047c0.074,0.031,0.097,0.149,0.103,0.284v1.989c0,0.05-0.019,0.171-0.088,0.217
			c-0.069,0.119-0.153,0.142-0.253,0.142h-2.661v8.749c0,0.123-0.02,0.168-0.09,0.282c-0.07,0.04-0.152,0.06-0.246,0.06H37.22
			c-0.116,0-0.195-0.019-0.272-0.055c-0.076-0.111-0.099-0.159-0.099-0.287v-8.749h-2.62c-0.126,0-0.207-0.019-0.28-0.054
			c-0.072-0.11-0.09-0.162-0.09-0.305V49.327z"/>
		
			<linearGradient id="SVGID_1_" gradientUnits="userSpaceOnUse" x1="-27.1729" y1="246.3086" x2="-17.6738" y2="246.3086" gradientTransform="matrix(1 0 0 -1 84 301.25)">
			<stop  offset="0" style="stop-color:#E52626"/>
			<stop  offset="0.0033" style="stop-color:#E52524"/>
			<stop  offset="0.0372" style="stop-color:#E41B19"/>
			<stop  offset="0.0723" style="stop-color:#E41916"/>
			<stop  offset="0.1099" style="stop-color:#E41715"/>
			<stop  offset="0.1275" style="stop-color:#E41B17"/>
			<stop  offset="0.3026" style="stop-color:#E62A26"/>
			<stop  offset="0.4103" style="stop-color:#E6322F"/>
			<stop  offset="0.7621" style="stop-color:#EA5456"/>
			<stop  offset="0.8807" style="stop-color:#E94C4D"/>
			<stop  offset="1" style="stop-color:#E84142"/>
			<stop  offset="1" style="stop-color:#E73331"/>
		</linearGradient>
		<path fill="url(#SVGID_1_)" d="M59.132,57.32c0.234,0.238,0.406,0.392,0.584,0.456c0.178,0.137,0.422,0.262,0.594,0.301
			c0.169,0.113,0.328,0.143,0.474,0.16c0.146,0.089,0.195,0.098,0.296,0.098c0.133,0,0.286-0.002,0.461-0.007
			c0.171-0.006,0.338-0.094,0.501-0.12c0.162-0.027,0.313-0.142,0.45-0.273c0.139-0.06,0.171-0.215,0.171-0.47
			c0-0.17-0.019-0.32-0.056-0.448c-0.108-0.058-0.164-0.181-0.306-0.222c-0.143-0.113-0.302-0.147-0.548-0.252
			c-0.176-0.031-0.362-0.067-0.635-0.182c-0.764-0.185-1.385-0.464-1.864-0.766c-0.478-0.302-0.903-0.622-1.2-0.961
			c-0.227-0.412-0.476-0.765-0.608-1.206c-0.06-0.442-0.163-0.895-0.163-1.36c0-0.507,0.127-1.062,0.311-1.443
			c0.256-0.455,0.558-0.876,0.908-1.191c0.421-0.314,0.882-0.591,1.385-0.755c0.574-0.165,1.182-0.281,1.82-0.281
			c0.357,0,0.77,0.088,1.1,0.125c0.39,0.109,0.722,0.167,1.035,0.318c0.312,0.152,0.62,0.325,0.924,0.593
			c0.305,0.27,0.606,0.49,0.907,0.805c0.06,0.144,0.159,0.281,0.161,0.415c0.002,0.134-0.106,0.199-0.257,0.341
			c-0.203,0.256-0.472,0.44-0.665,0.621c-0.262,0.252-0.457,0.447-0.729,0.724c-0.041,0.035-0.153,0.058-0.195,0.138
			c-0.11,0.008-0.149,0.008-0.258-0.003c-0.037-0.082-0.146-0.1-0.179-0.125c-0.036-0.024-0.137-0.127-0.162-0.162
			c-0.264-0.281-0.47-0.446-0.765-0.565c-0.296-0.047-0.581-0.072-0.785-0.072c-0.311,0-0.583,0.031-0.753,0.163
			c-0.172,0.059-0.287,0.223-0.281,0.49c0.006,0.164,0.111,0.306,0.17,0.431c0.132,0.05,0.275,0.164,0.434,0.195
			c0.158,0.031,0.32,0.129,0.489,0.147c0.238,0.019,0.4,0.115,0.552,0.14c0.52,0.173,1.087,0.355,1.555,0.619
			c0.47,0.191,0.9,0.482,1.233,0.8c0.329,0.318,0.617,0.743,0.791,1.201c0.176,0.459,0.299,0.97,0.299,1.677
			c0,0.636-0.14,1.236-0.345,1.726c-0.275,0.489-0.603,0.936-1.051,1.338c-0.449,0.33-0.941,0.617-1.546,0.788
			c-0.606,0.17-1.237,0.221-1.964,0.221c-0.353,0-0.78-0.022-1.213-0.06c-0.36-0.112-0.784-0.172-1.13-0.332
			c-0.419-0.23-0.754-0.413-1.08-0.689c-0.328-0.208-0.634-0.517-0.917-0.927c-0.11-0.049-0.137-0.173-0.155-0.227
			c-0.021-0.127-0.1-0.252-0.099-0.305c0.002-0.125,0.083-0.246,0.103-0.288c0.02-0.117,0.048-0.155,0.161-0.258l1.228-1.256
			c0.152-0.142,0.296-0.167,0.358-0.146C58.811,57.09,58.963,57.149,59.132,57.32z"/>
		<g>
			
				<linearGradient id="SVGID_2_" gradientUnits="userSpaceOnUse" x1="394.8506" y1="300.0986" x2="401.706" y2="291.2368" gradientTransform="matrix(0.5009 0.8592 0.861 -0.502 -407.687 -139.8073)">
				<stop  offset="0" style="stop-color:#220B0C"/>
				<stop  offset="0.022" style="stop-color:#2E0E10"/>
				<stop  offset="0.1327" style="stop-color:#63130F"/>
				<stop  offset="0.2463" style="stop-color:#8E1812"/>
				<stop  offset="0.361" style="stop-color:#B11917"/>
				<stop  offset="0.4773" style="stop-color:#CB1517"/>
				<stop  offset="0.5958" style="stop-color:#DE0A14"/>
				<stop  offset="0.7177" style="stop-color:#E41313"/>
				<stop  offset="0.8485" style="stop-color:#E41715"/>
				<stop  offset="0.851" style="stop-color:#E41B17"/>
				<stop  offset="0.8764" style="stop-color:#E62A26"/>
				<stop  offset="0.892" style="stop-color:#E6322F"/>
				<stop  offset="0.9244" style="stop-color:#EA5456"/>
				<stop  offset="0.9395" style="stop-color:#E94C4D"/>
				<stop  offset="0.9546" style="stop-color:#E84142"/>
				<stop  offset="1" style="stop-color:#E73331"/>
			</linearGradient>
			<path fill="url(#SVGID_2_)" d="M44.816,58.971c0.763,0.468,2.114,1.259,2.114,1.259l0.503,0.312
				c-0.339-0.353-0.474-0.923-0.49-1.912c-0.007-0.434-0.009-0.861-0.009-1.191l-0.002-0.001l0.004-4.436l3.833-2.183l0.012,0.006
				l0.003-0.001c-0.316-0.172-1.373-0.813-1.728-1.069c-0.429-0.185-0.745-0.338-1.04-0.46c-0.317-0.049-0.604-0.129-0.894-0.024
				l-3.262,1.736l-0.009,2.925l0.004-0.001c-0.006,0.278-0.024,1.396-0.004,2.709C43.875,58.042,44.055,58.505,44.816,58.971z"/>
			
				<linearGradient id="SVGID_3_" gradientUnits="userSpaceOnUse" x1="394.8506" y1="300.0986" x2="401.706" y2="291.2368" gradientTransform="matrix(0.5009 0.8592 0.861 -0.502 -407.687 -139.8073)">
				<stop  offset="0" style="stop-color:#220B0C"/>
				<stop  offset="0.0064" style="stop-color:#2E0E10"/>
				<stop  offset="0.0385" style="stop-color:#63130F"/>
				<stop  offset="0.0715" style="stop-color:#8E1812"/>
				<stop  offset="0.1048" style="stop-color:#B11917"/>
				<stop  offset="0.1386" style="stop-color:#CB1517"/>
				<stop  offset="0.173" style="stop-color:#DE0A14"/>
				<stop  offset="0.2084" style="stop-color:#E41313"/>
				<stop  offset="0.2464" style="stop-color:#E41715"/>
				<stop  offset="0.2707" style="stop-color:#E41B17"/>
				<stop  offset="0.5128" style="stop-color:#E62A26"/>
				<stop  offset="0.6616" style="stop-color:#E6322F"/>
				<stop  offset="0.7644" style="stop-color:#EA4E50"/>
				<stop  offset="0.8773" style="stop-color:#EA5456"/>
				<stop  offset="0.9159" style="stop-color:#E94C4D"/>
				<stop  offset="0.9546" style="stop-color:#E84142"/>
				<stop  offset="1" style="stop-color:#E73331"/>
			</linearGradient>
			<path fill="url(#SVGID_3_)" d="M44.816,58.971c0.763,0.468,2.114,1.259,2.114,1.259l0.503,0.312
				c-0.339-0.353-0.474-0.923-0.49-1.912c-0.007-0.434-0.009-0.861-0.009-1.191l-0.002-0.001l0.004-4.436l3.833-2.183l0.012,0.006
				l0.003-0.001c-0.316-0.172-1.373-0.813-1.728-1.069c-0.429-0.185-0.745-0.338-1.04-0.46c-0.317-0.049-0.604-0.129-0.894-0.024
				l-3.262,1.736l-0.009,2.925l0.004-0.001c-0.006,0.278-0.024,1.396-0.004,2.709C43.875,58.042,44.055,58.505,44.816,58.971z"/>
			
				<linearGradient id="SVGID_4_" gradientUnits="userSpaceOnUse" x1="-1771.7344" y1="706.2275" x2="-1764.8718" y2="697.3564" gradientTransform="matrix(-1 0.0052 0.0052 1 -1719.2563 -640.5861)">
				<stop  offset="0" style="stop-color:#220B0C"/>
				<stop  offset="0.0168" style="stop-color:#3C1011"/>
				<stop  offset="0.059" style="stop-color:#6F1511"/>
				<stop  offset="0.1023" style="stop-color:#9A1918"/>
				<stop  offset="0.146" style="stop-color:#BC1B1B"/>
				<stop  offset="0.1904" style="stop-color:#D61F1F"/>
				<stop  offset="0.2355" style="stop-color:#E52825"/>
				<stop  offset="0.282" style="stop-color:#E62F2C"/>
				<stop  offset="0.3318" style="stop-color:#E6322F"/>
				<stop  offset="0.5919" style="stop-color:#E41715"/>
				<stop  offset="0.6203" style="stop-color:#E41D1A"/>
				<stop  offset="0.7534" style="stop-color:#E73837"/>
				<stop  offset="0.8594" style="stop-color:#E94C4D"/>
				<stop  offset="0.9244" style="stop-color:#EA5456"/>
				<stop  offset="0.9395" style="stop-color:#E94C4D"/>
				<stop  offset="0.9546" style="stop-color:#E84142"/>
				<stop  offset="1" style="stop-color:#E73331"/>
			</linearGradient>
			<path fill="url(#SVGID_4_)" d="M49.121,48.177c-0.78,0.367-2.154,1.125-2.154,1.125l-0.508,0.311
				c0.496-0.137,1.058,0.093,1.984,0.574c0.339,0.175,0.665,0.351,0.973,0.517l0.003-0.001l3.84,2.259l0.002,4.448l-0.012,0.007
				v0.003c0.318-0.246,1.405-0.765,1.825-1.036c0.351-0.203,0.65-0.457,0.912-0.634c0.204-0.197,0.341-0.427,0.454-0.64l0.021-3.866
				l-2.449-1.477l-0.002,0.002c-0.258-0.072-1.214-0.682-2.308-1.286C50.458,47.767,49.901,47.737,49.121,48.177z"/>
			<path display="none" fill="#010202" d="M46.458,49.611c0.213-0.035,0.507-0.027,0.79,0.008c0.286,0.108,0.491,0.233,0.765,0.299
				c0.203,0.135,0.475,0.274,0.747,0.416c0.197,0.142,0.468,0.211,0.664,0.355h-0.016l0.001-0.001l0.009-0.005l0.008,0.005
				c0.314,0.169,0.63,0.411,0.942,0.581l1.015,0.584c0.626,0.344,1.253,0.687,1.877,1.105c-0.632-0.406-1.262-0.743-1.896-1.082
				l-1.012-0.58c-0.314-0.17-0.627-0.34-0.942-0.511h0.017l-0.002,0l-0.009,0.006l-0.008-0.006
				c-0.269-0.144-0.466-0.288-0.735-0.429c-0.197-0.143-0.469-0.285-0.668-0.348c-0.272-0.136-0.478-0.267-0.759-0.305
				C46.963,49.595,46.673,49.582,46.458,49.611z"/>
			
				<linearGradient id="SVGID_5_" gradientUnits="userSpaceOnUse" x1="-1762.8535" y1="708.9307" x2="-1772.0819" y2="707.3672" gradientTransform="matrix(-1 0.0052 0.0052 1 -1719.2563 -640.5861)">
				<stop  offset="0" style="stop-color:#95191B"/>
				<stop  offset="0.0185" style="stop-color:#B11917"/>
				<stop  offset="0.0402" style="stop-color:#CB1517"/>
				<stop  offset="0.0625" style="stop-color:#DE0A14"/>
				<stop  offset="0.0854" style="stop-color:#E41313"/>
				<stop  offset="0.1099" style="stop-color:#E41715"/>
				<stop  offset="0.1284" style="stop-color:#E41B17"/>
				<stop  offset="0.3127" style="stop-color:#E62A26"/>
				<stop  offset="0.426" style="stop-color:#E6322F"/>
				<stop  offset="0.7621" style="stop-color:#EA5456"/>
				<stop  offset="0.8807" style="stop-color:#E94C4D"/>
				<stop  offset="1" style="stop-color:#E84142"/>
				<stop  offset="1" style="stop-color:#E73331"/>
			</linearGradient>
			<path fill="url(#SVGID_5_)" d="M50.148,58.473l-3.214-1.926v0.913l0.002,0.001c-0.002,0.406,0.001,0.759,0.009,1.195
				c0.015,0.938,0.142,1.432,0.44,1.854l2.636,1.551l2.46-1.389l-0.003-0.002c0.189-0.135,1.237-0.642,2.311-1.352
				c1.222-0.685,1.526-1.119,1.547-2.026c0.018-0.908,0.114-2.458,0.114-2.458l0.004-0.624c-0.159,0.492-0.586,0.904-1.495,1.411
				c-0.331,0.26-0.656,0.438-0.966,0.603v0.001L50.148,58.473z"/>
			<path display="none" fill="#010202" d="M56.453,54.211c-0.111,0.285-0.266,0.481-0.439,0.728
				c-0.175,0.176-0.436,0.334-0.626,0.488c-0.263,0.154-0.457,0.303-0.727,0.448c-0.194,0.146-0.464,0.293-0.661,0.363l0.008-0.019
				v0l0.006,0.012l-0.012,0.008c-0.314,0.243-0.63,0.412-0.946,0.581l-1.015,0.58c-0.629,0.336-1.26,0.671-1.893,1.071
				c0.625-0.413,1.253-0.755,1.88-1.169l0.942-0.511c0.313-0.243,0.693-0.411,1.015-0.581l-0.012,0.02l-0.064-0.002l-0.008-0.012
				l0.084-0.006c0.197-0.144,0.466-0.289,0.663-0.434c0.268-0.146,0.463-0.218,0.727-0.37c0.193-0.151,0.452-0.308,0.63-0.553
				C56.18,54.687,56.337,54.494,56.453,54.211z"/>
			<path display="none" fill="#010202" d="M47.434,60.542c-0.173-0.174-0.312-0.453-0.35-0.662c-0.112-0.285-0.129-0.572-0.14-0.859
				c-0.012-0.215-0.017-0.504-0.02-0.792c-0.003-0.217-0.004-0.502-0.004-0.791l0.01,0.014h-0.003l-0.01-0.004v-0.01
				c0-0.34,0-0.752,0.001-1.092l0.003-1.089c0.003-0.752,0.007-1.503,0.015-2.255c0.008,0.752,0.01,1.503,0.012,2.255l0.001,1.091
				c0.001,0.338,0,0.751-0.001,1.091l-0.01-0.014h0.003l0.01,0.004l-0.001,0.011c-0.001,0.289,0,0.573,0.003,0.791
				c0.002,0.287,0.004,0.575,0.013,0.79c0.008,0.287,0.095,0.574,0.131,0.857C47.131,60.086,47.266,60.364,47.434,60.542z"/>
		</g>
	</g>
	<g>
		<path d="M65.546,65.402c-0.204,0.083-0.443,0.161-0.783,0.161c-0.435,0-0.769-0.274-0.769-0.813c0-0.738,0.504-1.438,1.334-1.438
			c0.235,0,0.392,0.04,0.53,0.096l0.283-0.887c-0.17-0.073-0.461-0.139-0.8-0.139c-1.5,0-2.569,1.1-2.569,2.5
			c0,1.021,0.687,1.612,1.66,1.612c0.465,0,0.87-0.083,1.117-0.2L65.546,65.402z M68.558,62.382c-1.404,0-2.352,1.122-2.352,2.49
			c0,0.979,0.665,1.626,1.665,1.626c1.369,0,2.352-1.056,2.352-2.495C70.227,63.107,69.613,62.382,68.558,62.382L68.558,62.382z
			 M68.405,63.26c0.465,0,0.622,0.387,0.622,0.752c0,0.673-0.356,1.6-0.991,1.6c-0.404,0-0.631-0.305-0.631-0.761
			C67.397,64.238,67.736,63.26,68.405,63.26L68.405,63.26z M71.735,66.411l0.747-3.942h-1.161l-0.747,3.942H71.735z M72.048,61.983
			c0.369,0,0.683-0.244,0.683-0.652c0-0.349-0.239-0.574-0.578-0.574c-0.353,0-0.661,0.264-0.67,0.661
			C71.482,61.765,71.727,61.983,72.048,61.983L72.048,61.983z M73.864,66.411l0.331-1.747c0.165-0.869,0.608-1.348,0.981-1.348
			c0.292,0,0.392,0.196,0.392,0.47c0,0.144-0.018,0.303-0.043,0.443l-0.409,2.178h1.16l0.436-2.286
			c0.03-0.191,0.061-0.492,0.061-0.666c0-0.677-0.361-1.074-1.004-1.074c-0.526,0-1.018,0.226-1.387,0.739h-0.018l0.083-0.652h-1.03
			c-0.053,0.352-0.113,0.787-0.213,1.287l-0.5,2.651L73.864,66.411z"/>
	</g>
</g>
</svg>
